<?xml version="1.0"?>
<svg xmlns="http://www.w3.org/2000/svg" viewBox="0 0 24 24">
    <path style="text-indent:0;text-align:start;line-height:normal;text-transform:none;block-progression:tb;-inkscape-font-specification:Sans" d="M 12 2 C 6.4886661 2 2 6.4886661 2 12 C 2 17.511334 6.4886661 22 12 22 C 17.511334 22 22 17.511334 22 12 C 22 6.4886661 17.511334 2 12 2 z M 12 4 C 16.430666 4 20 7.5693339 20 12 C 20 16.430666 16.430666 20 12 20 C 7.5693339 20 4 16.430666 4 12 C 4 7.5693339 7.5693339 4 12 4 z M 9 8 C 7.8954305 8 7 8.8954305 7 10 C 7 11.104569 7.8954305 12 9 12 C 10.104569 12 11 11.104569 11 10 C 11 8.8954305 10.104569 8 9 8 z M 15 8 C 13.895431 8 13 8.8954305 13 10 C 13 11.104569 13.895431 12 15 12 C 16.104569 12 17 11.104569 17 10 C 17 8.8954305 16.104569 8 15 8 z M 10.65625 14.125 C 9.8757273 14.1262 9.0547223 14.507778 8.28125 15.28125 L 9.71875 16.71875 C 10.269778 16.167722 10.497804 16.125248 10.65625 16.125 C 10.814696 16.124752 11.082266 16.21951 11.5 16.4375 C 11.917734 16.65549 12.518722 16.996703 13.3125 16.96875 C 14.106278 16.9408 14.917769 16.519731 15.71875 15.71875 L 14.28125 14.28125 C 13.692231 14.870269 13.396691 14.962484 13.21875 14.96875 C 13.040809 14.97505 12.809891 14.866885 12.40625 14.65625 C 12.002609 14.445615 11.436773 14.123779 10.65625 14.125 z" overflow="visible" font-family="Sans"/>
</svg>
